<svg width="1920" height="245" viewBox="0 0 1920 245" fill="none" xmlns="http://www.w3.org/2000/svg">
<g clip-path="url(#clip0_2_2)">
<rect width="1920" height="245" fill="#F25F3A"/>
<path d="M902.353 203.468C960.733 145.088 960.733 50.4366 902.353 -7.94283C843.974 -66.3222 749.322 -66.3222 690.943 -7.94283L432.013 250.987C373.634 309.366 373.634 404.018 432.014 462.397C490.393 520.776 585.045 520.776 643.424 462.397L902.353 203.468Z" fill="#FFF0EC" fill-opacity="0.13"/>
<path d="M2062.83 -141.732C2128.65 -207.548 2134.48 -308.426 2075.85 -367.049C2017.23 -425.672 1916.35 -419.842 1850.54 -354.025L1558.62 -62.1119C1492.81 3.70423 1486.97 104.582 1545.6 163.206C1604.22 221.829 1705.1 215.998 1770.92 150.182L2062.83 -141.732Z" fill="#FFF0EC" fill-opacity="0.13"/>
</g>
<defs>
<clipPath id="clip0_2_2">
<rect width="1920" height="245" fill="white"/>
</clipPath>
</defs>
</svg>
